<?xml version="1.0" standalone="no"?><!DOCTYPE svg PUBLIC "-//W3C//DTD SVG 1.1//EN" "http://www.w3.org/Graphics/SVG/1.1/DTD/svg11.dtd"><svg t="1643961821909" class="icon" viewBox="0 0 1024 1024" version="1.1" xmlns="http://www.w3.org/2000/svg" p-id="31494" xmlns:xlink="http://www.w3.org/1999/xlink" width="200" height="200"><defs><style type="text/css"></style></defs><path d="M975.657846 287.841772c-29.170542-10.045485-92.534368-7.727296-129.81857-5.215925a315.08049 315.08049 0 0 0-4.636378-107.216231 320.489597 320.489597 0 0 0-107.023048 14.48868c-3.863648-37.09102-12.556856-100.068482-27.625083-127.307199 0 0-20.477334 38.636479-78.432053 132.329942a233.364336 233.364336 0 0 0-39.795574-81.32979 444.319513 444.319513 0 0 0-57.954719 96.591199 475.421879 475.421879 0 0 0-45.011498 111.466243 654.888326 654.888326 0 0 0 47.909234 107.98896 106.829866 106.829866 0 0 0 117.454898 92.341186 673.820201 673.820201 0 0 0 108.954872 26.465988 475.228697 475.228697 0 0 0 101.807123-63.750191A444.319513 444.319513 0 0 0 946.680487 410.705776 231.818876 231.818876 0 0 0 861.293867 386.364794c79.977512-72.057034 114.363979-98.523022 114.363979-98.523022z" fill="#73D36E" p-id="31495"></path><path d="M617.999957 332.119177l107.583276 90.274134a210.761995 210.761995 0 0 1 26.098942 296.786117L548.531567 961.275608a175.602799 175.602799 0 0 1-247.389378 21.636428l-161.307301-135.343587a175.602799 175.602799 0 0 1-21.636429-247.389378l203.13129-242.115498a210.761995 210.761995 0 0 1 296.670208-25.944396z" fill="#EAD050" p-id="31496"></path><path d="M558.383869 758.240908l139.670873 24.727347 12.943221-15.454592-48.488782-133.295854L787.884557 656.82015c1.931824-5.60229 3.863648-11.204579 5.409107-16.806869l-137.352685-24.147799-48.488781-133.295854 181.205088 31.875095q-3.477283-9.852302-7.920478-19.318239l-180.239177-31.875096L537.713352 289.773596q-10.045485-2.704554-19.318239-4.443196l62.977461 173.864158-140.829967-24.727347-47.716052-131.170848c-5.409107 2.511371-10.625032 5.215925-15.647775 8.306843l43.46604 119.386722L280.780764 405.683034l-12.94322 15.454591 48.488781 133.295854-139.670873-23.954617-12.94322 15.454592L212.587378 679.42249 86.439273 656.82015a174.830069 174.830069 0 0 0-4.82956 17.000051l137.352684 24.147799 48.488782 133.295854-165.557314-28.784177a173.864157 173.864157 0 0 0 13.71595 19.31824L274.405745 850.002547l55.250166 151.648181a173.864157 173.864157 0 0 0 22.409158 10.045485l-57.954719-158.216383 139.670873 24.727347 47.716052 131.170847a174.830069 174.830069 0 0 0 15.840956-7.534113l-43.659221-119.966269L593.92943 907.957266l12.943221-15.454592z m132.909489 5.60229l-139.670873-24.727347-49.261511-133.295854 139.670873 24.727347z m-159.761842-28.20463l-139.670873-24.727347-48.488782-133.295854L483.042734 602.342714z m55.63653-257.512135l48.488782 133.295854-139.670873-24.727347-48.488782-133.295854zM287.735331 425.001273l139.670873 24.727347 48.488781 133.295854-139.670873-24.340982zM183.610019 549.603919l139.670873 24.727347 48.488781 133.295854L231.905618 682.899773z m103.932129 285.716766l-48.488781-133.295854 139.670873 24.727347 48.488781 133.295853z m159.761843 28.20463l-48.488782-133.295854 139.670873 24.727347L586.974864 888.639026z" fill="#E5A923" p-id="31497"></path><path d="M969.862374 243.796185a9.65912 9.65912 0 0 0-6.375019-7.534113 279.728111 279.728111 0 0 0-87.125261-7.727296 9.65912 9.65912 0 1 0 0 19.318239 400.273927 400.273927 0 0 1 61.818367 2.511372c-16.806869 13.909133-47.909234 39.988756-96.591198 82.875248-8.306843-0.965912-17.193233-1.738642-26.852353-2.318189a331.500993 331.500993 0 0 0 19.318239-200.330146 9.65912 9.65912 0 0 0-8.500025-7.147748 320.296414 320.296414 0 0 0-97.750293 11.784126A394.864819 394.864819 0 0 0 700.372931 15.261409a10.045485 10.045485 0 0 0-8.693208-4.82956 9.65912 9.65912 0 0 0-8.500026 5.215925s-18.352328 35.159196-67.420656 114.363979a217.523379 217.523379 0 0 0-35.159196-65.488832 9.852302 9.852302 0 0 0-6.954567-3.090919 9.465937 9.465937 0 0 0-7.147748 2.897736 447.024067 447.024067 0 0 0-60.079726 99.875299 804.411501 804.411501 0 0 0-36.704655 83.261614 221.387027 221.387027 0 0 0-118.227627 24.534164 9.65912 9.65912 0 1 0 8.88639 17.193233 200.71651 200.71651 0 0 1 222.739304 23.954618l107.602595 90.216179A201.682422 201.682422 0 0 1 714.86161 686.570239L512.213276 928.820965a166.330044 166.330044 0 0 1-233.7507 20.477334l-161.307302-135.227678A166.136861 166.136861 0 0 1 96.67794 579.547191l180.625541-215.20519a9.65912 9.65912 0 0 0-14.875044-12.363674L81.802895 567.569882a185.648284 185.648284 0 0 0 22.988706 260.989419l161.307301 135.227678a183.523277 183.523277 0 0 0 118.613992 43.079674h16.613686a183.909642 183.909642 0 0 0 125.761741-65.29565l203.034699-242.443908a220.614297 220.614297 0 0 0-27.238718-310.444112l-107.602595-90.21618a219.262021 219.262021 0 0 0-106.057136-48.488781 816.38881 816.38881 0 0 1 34.193284-77.272959 618.18367 618.18367 0 0 1 49.841058-85.772984A270.455356 270.455356 0 0 1 603.781732 154.545918c1.352277 4.443195 2.704554 8.88639 4.056831 13.71595a9.65912 9.65912 0 1 0 19.318239-5.215925c0-2.897736-1.738642-5.795472-2.511371-8.500025 34.966014-56.216078 55.829713-92.148003 66.841109-111.659426a535.887969 535.887969 0 0 1 18.352328 97.943475 309.091835 309.091835 0 0 0-142.568609 96.591199 9.65912 9.65912 0 1 0 14.875045 12.363673 312.569118 312.569118 0 0 1 235.875706-107.409412 309.091835 309.091835 0 0 1-63.363826 251.137116 9.65912 9.65912 0 1 0 14.875045 12.363673 309.091835 309.091835 0 0 0 37.670567-56.602442 311.603206 311.603206 0 0 1 109.341237 21.443246 616.638211 616.638211 0 0 1-75.920682 63.943373c-11.784126 8.693208-22.409158 16.227321-31.875096 22.795523a9.65912 9.65912 0 0 0 10.818215 16.034139c9.65912-6.568201 20.477334-14.295497 32.454642-23.181888a449.342255 449.342255 0 0 0 87.897991-77.272958 9.65912 9.65912 0 0 0-2.704554-13.909133 215.398373 215.398373 0 0 0-69.35248-22.988705c67.420657-59.113813 98.136658-82.875248 98.136658-83.068431a9.65912 9.65912 0 0 0 3.863647-9.272755z" fill="#604D42" p-id="31498"></path><path d="M292.371708 341.353296a9.65912 9.65912 0 0 0 7.340931-3.477284 201.682422 201.682422 0 0 1 27.045536-26.65917 9.65912 9.65912 0 0 0-12.170491-15.068227 222.159757 222.159757 0 0 0-29.750089 29.170542 9.65912 9.65912 0 0 0 7.340931 15.840956z" fill="#604D42" p-id="31499"></path></svg>