<svg xmlns="http://www.w3.org/2000/svg" fill="none" viewBox="0 0 110 110" height="110" width="110">
<mask height="110" width="110" y="0" x="0" maskUnits="userSpaceOnUse" style="mask-type:alpha" id="mask0_1:1126">
<rect fill="#C4C4C4" height="110" width="110"></rect>
</mask>
<g mask="url(#mask0_1:1126)">
<path fill="#31162B" d="M29.4996 43.5804L27.4996 48.7247C26.4996 57.9844 47.9225 65.2145 47.4998 72.3886C46.4995 89.3649 50.9996 91.4226 50.9996 112L9.49914 110C6.49958 101 14.549 99 12.4996 91.9371C5.69646 68.4915 17.4996 78.5618 15.9996 52.3257C14.8626 43.302 13.4996 36.8927 21.9996 27.1185C29.4996 15.2865 34.4996 7.05558 47.4998 10.6566C57.9998 6.54114 62.9996 10.6566 68.9996 16.8298C71.4995 19.4019 78.4996 23.003 81.9996 28.6618C91.9644 44.7728 83.2862 66.7834 90.9996 75.4752C95.673 80.7415 94.4996 87.8216 93.4996 93.4804C92.2037 100.813 99.9996 99 93.4996 112H59.9996C60.6662 102.054 54.6583 101.074 57.9998 82.1629C59.9996 70.8453 73.9997 64.1577 73.9997 54.8979C73.9997 49.9422 71.8996 46.1525 70.9996 44.6092C70.0996 43.0659 68.9996 42.0371 67.4996 40.4938L29.4996 43.5804Z"></path>
<mask height="104" width="101" y="9" x="2" maskUnits="userSpaceOnUse" style="mask-type:alpha" id="mask1_1:1126">
<path fill="#31162B" d="M29.5 43.8324L27.5 49.0142C26.5 58.3414 47.923 65.6241 47.5002 72.8505C46.4999 89.9505 51 92.0232 51 112.751L2 111.196C5 106.014 15.2926 103.636 12.5 92.5414C6.50007 68.7051 17.5 79.0687 16 52.6414C14.8631 43.5519 13.5 37.0959 22 27.2505C29.5 15.3323 34.5 7.04141 47.5002 10.6687C58.0002 6.52322 63 10.6686 69 16.8869C71.5 19.4777 78.5 23.105 82 28.805C91.9648 45.0334 83.2866 67.2045 91 75.9596C95.6734 81.2643 94.5 88.396 93.5 94.096C92.2042 101.482 95.5 104.978 103 110.16L60 112.751C60.6667 102.732 54.6587 101.745 58.0002 82.696C60 71.296 74.0001 64.5596 74.0001 55.2323C74.0001 50.2406 71.9 46.4232 71 44.8687C70.1 43.3142 69 42.2778 67.5 40.7232L29.5 43.8324Z"></path>
</mask>
<g mask="url(#mask1_1:1126)">
<path fill="#241020" d="M42.5 83.6181C27.5 83.1 17 66.0001 17 57.7091C39 55.1182 82.8 53.5636 84 57.7091C83.486 60.9055 81.5 64.9213 77 72.2182C74.0417 77.0151 68.5 82.0636 55 84.6545C55 84.6545 57.5 84.1363 42.5 83.6181Z"></path>
<path fill="#241020" d="M76.5 53.0454C76.5 53.0454 78 46.3091 78 43.7182C80 45.2727 83 48.3818 83.5 53.0454C84 57.7091 76.5 53.0454 76.5 53.0454Z"></path>
<path fill="#241020" d="M28.0244 52.5273C28.0244 52.5273 26.5244 45.7909 26.5244 43.2C24.5244 44.7546 21.5244 47.8636 21.0244 52.5273C20.5244 57.1909 28.0244 52.5273 28.0244 52.5273Z"></path>
</g>
<path fill="#FAB5A3" d="M42.5703 77.5926C42.5703 77.5926 44.7075 86.1032 43.0951 89.292C41 90.8728 19.211 96.8709 17.5 97.0909C18.5 99.8901 44.5 105.333 52 105.382C57.7034 105.419 86.1667 100.926 87.5 97.0909C80 96.0546 60 89.292 60 89.292C60 89.292 59.7246 83.113 60.6912 78.13C56.5656 74.8904 42.5703 77.5926 42.5703 77.5926Z" clip-rule="evenodd" fill-rule="evenodd"></path>
<mask height="24" width="50" y="76" x="18" maskUnits="userSpaceOnUse" style="mask-type:alpha" id="mask2_1:1126">
<path fill="white" d="M42.5703 77.5926C42.5703 77.5926 45 87.2455 43 89.3182C41 91.3909 20.211 96.8709 18.5 97.0909C19.5 99.8901 44 99.1637 52 99.1637C59.4375 99.1637 70 92.4273 66.5 91.3909C63 90.3546 60 89.3182 60 89.3182C60 89.3182 59.7246 83.113 60.6912 78.13C56.5656 74.8904 42.5703 77.5926 42.5703 77.5926Z" clip-rule="evenodd" fill-rule="evenodd"></path>
</mask>
<g mask="url(#mask2_1:1126)">
<g opacity="0.348749" style="mix-blend-mode:multiply">
<path fill="#E89A85" d="M39 79.0979C39 79.0979 46.7175 88.504 58.5496 89.198C67.2526 90.7859 59.5962 74.291 59.5962 74.291L39 79.0979Z" clip-rule="evenodd" fill-rule="evenodd"></path>
</g>
</g>
<path fill="white" d="M67.3205 90.976C67.5085 90.8046 67.7748 90.8515 67.9154 91.0807C68.0559 91.3099 68.0175 91.6347 67.8295 91.806L67.8285 91.8069L67.8268 91.8085L67.8213 91.8134L67.8022 91.8303C67.7859 91.8447 67.7623 91.8653 67.7315 91.8915C67.6698 91.944 67.5793 92.0192 67.4602 92.1133C67.2632 92.269 67.0001 92.2005 66.8724 91.9603C66.8723 91.9602 66.8724 91.9604 66.8724 91.9603C66.9877 92.2087 66.9164 92.5239 66.7129 92.6653C66.4924 92.8187 66.2397 92.987 65.9552 93.1657C65.7554 93.2912 65.5121 93.2049 65.3974 92.9742C65.4769 93.2258 65.3844 93.5132 65.181 93.6294C64.9356 93.7697 64.6735 93.9134 64.3949 94.0586C64.1823 94.1695 63.9368 94.0527 63.8413 93.7977C63.9195 94.0612 63.8114 94.3542 63.596 94.4566C63.3398 94.5784 63.0723 94.7003 62.7935 94.8211C62.5796 94.9138 62.3452 94.7849 62.2589 94.5322C62.3164 94.7967 62.1946 95.0727 61.9785 95.1577C61.7136 95.2619 61.4399 95.3645 61.1576 95.4648C60.9454 95.5402 60.7238 95.4047 60.6439 95.1592C60.6787 95.4199 60.5458 95.6749 60.3319 95.7432C60.0614 95.8295 59.7838 95.9134 59.4992 95.9943C59.2806 96.0565 59.062 95.9007 58.9967 95.6431C59.0259 95.9103 58.8809 96.1634 58.661 96.2185C58.386 96.2874 58.1052 96.3534 57.8184 96.416C57.5976 96.4642 57.3861 96.295 57.3317 96.034C57.3494 96.3024 57.1941 96.5458 56.9723 96.5872C56.6945 96.639 56.4115 96.6876 56.1235 96.7325C55.9023 96.767 55.699 96.5875 55.6538 96.3259C55.6588 96.5932 55.4945 96.8245 55.2726 96.8525C54.9929 96.8878 54.7087 96.9196 54.4201 96.9476C54.1986 96.9691 54.0033 96.7795 53.9673 96.5172C53.9606 96.783 53.7882 97.003 53.5663 97.0182C53.2853 97.0375 53.0004 97.0531 52.7117 97.0649C52.4894 97.074 52.3013 96.8732 52.2755 96.6089C52.2593 96.8744 52.0787 97.0851 51.8564 97.0881C51.7135 97.09 51.5697 97.091 51.425 97.091C51.2752 97.091 51.1263 97.09 50.9781 97.0882C50.7434 97.0852 50.5551 96.8508 50.5575 96.5647C50.5599 96.2785 50.7521 96.0489 50.9868 96.0519C51.1321 96.0537 51.2782 96.0546 51.425 96.0546C51.5666 96.0546 51.7072 96.0537 51.8469 96.0518C52.0661 96.0488 52.2483 96.2486 52.2736 96.5079C52.2895 96.2475 52.4643 96.038 52.6833 96.0291C52.9656 96.0176 53.244 96.0023 53.5186 95.9835C53.737 95.9685 53.9262 96.1575 53.9616 96.4146C53.9681 96.154 54.1346 95.9356 54.3527 95.9145C54.6345 95.8871 54.912 95.8561 55.1852 95.8217C55.4035 95.7941 55.6004 95.9733 55.6447 96.2295C55.6398 95.9678 55.7979 95.7385 56.0157 95.7046C56.2967 95.6607 56.5727 95.6133 56.8437 95.5628C57.0618 95.522 57.2666 95.6912 57.3198 95.9467C57.3025 95.684 57.4515 95.4432 57.6687 95.3958C57.9482 95.3348 58.2219 95.2706 58.4898 95.2034C58.7059 95.1492 58.9175 95.3055 58.9813 95.5573C58.9528 95.2961 59.0913 95.0462 59.3062 94.9851C59.5833 94.9063 59.8534 94.8246 60.1167 94.7406C60.3266 94.6736 60.541 94.8102 60.6191 95.0499C60.5851 94.7953 60.7115 94.5439 60.9198 94.4699C61.1943 94.3723 61.4602 94.2726 61.7176 94.1714C61.9296 94.088 62.1561 94.2185 62.2402 94.4649C62.1842 94.207 62.299 93.9355 62.5089 93.8445C62.7794 93.7273 63.0388 93.6092 63.2871 93.4911C63.4982 93.3907 63.7351 93.51 63.828 93.7582C63.7519 93.5017 63.8524 93.2143 64.0607 93.1058C64.3302 92.9652 64.5835 92.8264 64.8203 92.691C65.0188 92.5776 65.2526 92.6674 65.3638 92.8908C65.2867 92.6471 65.3711 92.3667 65.5659 92.2444C65.8394 92.0727 66.0815 91.9114 66.2918 91.7651C66.4886 91.6282 66.7373 91.7042 66.8589 91.9332C66.7491 91.6965 66.8082 91.3935 66.9979 91.2436C67.1086 91.1562 67.191 91.0877 67.2449 91.0418C67.2718 91.0189 67.2916 91.0016 67.3042 90.9905L67.3178 90.9785L67.3205 90.976C67.3205 90.976 67.3205 90.976 67.3205 90.976ZM34.6397 91.462C34.6398 91.462 34.6397 91.4619 34.6397 91.462C34.4372 91.3176 34.1768 91.4005 34.0583 91.6474C33.9397 91.8944 34.0078 92.2118 34.2104 92.3564L34.2113 92.3571L34.213 92.3583L34.2187 92.3623L34.2392 92.3766C34.2569 92.3889 34.2826 92.4065 34.3163 92.4291C34.3835 92.4744 34.4825 92.5396 34.6122 92.6214C34.8207 92.7529 35.0771 92.6535 35.185 92.3993C35.2928 92.1451 35.2113 91.8325 35.0028 91.701C34.88 91.6235 34.7877 91.5627 34.7269 91.5218C34.6965 91.5013 34.674 91.4858 34.6594 91.4757L34.6436 91.4647L34.6397 91.462ZM35.2161 92.416C35.3147 92.1563 35.5672 92.0431 35.7803 92.1632C36.0099 92.2927 36.273 92.4356 36.5685 92.5878C36.7847 92.6992 36.8859 93.0032 36.7945 93.2668C36.7031 93.5304 36.4538 93.6538 36.2376 93.5424C35.9332 93.3856 35.6615 93.238 35.4235 93.1039C35.2105 92.9837 35.1176 92.6758 35.2161 92.416ZM36.822 93.2802C36.907 93.0134 37.1533 92.8812 37.3721 92.9848C37.627 93.1055 37.8988 93.2295 38.1869 93.3552C38.4079 93.4515 38.523 93.7481 38.4439 94.0176C38.3649 94.287 38.1216 94.4274 37.9006 94.331C37.6051 94.2021 37.3262 94.0749 37.0643 93.9508C36.8455 93.8472 36.737 93.5469 36.822 93.2802ZM38.4714 94.029C38.5448 93.7571 38.785 93.6093 39.008 93.6988C39.2731 93.8052 39.5494 93.9118 39.8366 94.0177C40.0613 94.1005 40.1884 94.3897 40.1205 94.6636C40.0526 94.9375 39.8154 95.0925 39.5907 95.0097C39.2967 94.9014 39.0138 94.7922 38.7422 94.6832C38.5192 94.5937 38.398 94.3008 38.4714 94.029ZM40.1483 94.6733C40.2108 94.3975 40.4449 94.2358 40.6712 94.3121C40.9439 94.404 41.225 94.4947 41.5143 94.5835C41.7419 94.6534 41.88 94.935 41.8227 95.2126C41.7654 95.4901 41.5344 95.6584 41.3068 95.5885C41.011 95.4977 40.7235 95.405 40.4446 95.3109C40.2183 95.2346 40.0857 94.9492 40.1483 94.6733ZM41.8501 95.2205C41.9022 94.9415 42.13 94.7668 42.3588 94.8304C42.6354 94.9072 42.9185 94.9819 43.2082 95.0541C43.4381 95.1115 43.5864 95.3852 43.5394 95.6656C43.4924 95.946 43.2679 96.1268 43.0379 96.0695C42.742 95.9957 42.4527 95.9193 42.17 95.8409C41.9412 95.7773 41.7979 95.4996 41.8501 95.2205ZM43.5682 95.6724C43.6102 95.3908 43.8314 95.204 44.0623 95.2551C44.3429 95.3172 44.6289 95.3768 44.9203 95.4333C45.1522 95.4783 45.3102 95.7439 45.2733 96.0265C45.2364 96.3091 45.0185 96.5018 44.7867 96.4568C44.4891 96.399 44.197 96.3382 43.9104 96.2748C43.6795 96.2237 43.5263 95.9539 43.5682 95.6724ZM45.3027 96.0318C45.3346 95.7483 45.549 95.5499 45.7815 95.5888C46.0648 95.6362 46.3527 95.6806 46.6452 95.7217C46.8784 95.7545 47.0456 96.0116 47.0187 96.2959C46.9918 96.5802 46.7809 96.7841 46.5478 96.7513C46.2492 96.7093 45.9553 96.6639 45.666 96.6156C45.4335 96.5767 45.2708 96.3153 45.3027 96.0318ZM47.0481 96.2996C47.07 96.0147 47.2772 95.8054 47.5109 95.8322C47.7961 95.8648 48.0852 95.8943 48.3783 95.9203C48.6124 95.941 48.7884 96.1893 48.7714 96.4747C48.7543 96.7601 48.5508 96.9747 48.3167 96.9539C48.0176 96.9274 47.7225 96.8973 47.4314 96.864C47.1978 96.8372 47.0261 96.5846 47.0481 96.2996ZM48.8006 96.4769C48.8127 96.1911 49.0125 95.9714 49.247 95.9862C49.5333 96.0042 49.8232 96.0189 50.1166 96.03C50.3512 96.0388 50.5355 96.2779 50.5282 96.564C50.5209 96.85 50.3249 97.0747 50.0903 97.0659C49.791 97.0546 49.4952 97.0396 49.203 97.0211C48.9686 97.0064 48.7884 96.7627 48.8006 96.4769Z" clip-rule="evenodd" fill-rule="evenodd"></path>
<path fill="#FAB5A3" d="M74.1822 52.562C74.1822 52.562 79.2285 46.8183 83.4821 51.5683C87.7356 56.3182 82.2795 63.7348 76.6072 62.8125C70.9349 61.8902 74.1822 52.562 74.1822 52.562Z" clip-rule="evenodd" fill-rule="evenodd"></path>
<path fill="#C26B6B" d="M80.8547 54.365C80.8547 54.0781 80.6303 53.8455 80.3535 53.8455C78.525 53.8455 76.8663 55.0814 75.3749 57.479C75.2249 57.7201 75.292 58.0416 75.5247 58.1971C75.7573 58.3525 76.0676 58.2831 76.2176 58.0419C76.6723 57.3109 77.1335 56.7097 77.601 56.2353C78.6121 56.4756 79.1026 56.8726 79.1867 57.4063C79.2313 57.6894 79.489 57.8815 79.7622 57.8352C80.0355 57.7889 80.2208 57.5219 80.1761 57.2387C80.0456 56.4109 79.4848 55.8177 78.554 55.4487C79.1442 55.0707 79.7441 54.8845 80.3535 54.8845C80.6303 54.8845 80.8547 54.6519 80.8547 54.365Z" clip-rule="evenodd" fill-rule="evenodd"></path>
<path fill="#FAB5A3" d="M25.8178 53.5984C25.8178 53.5984 20.7715 47.8547 16.5179 52.6046C12.2644 57.3546 17.7205 64.7711 23.3928 63.8488C29.0651 62.9265 25.8178 53.5984 25.8178 53.5984Z" clip-rule="evenodd" fill-rule="evenodd"></path>
<path fill="#C26B6B" d="M19.0733 55.3395C19.0733 55.0382 19.309 54.794 19.5997 54.794C21.5195 54.794 23.2611 56.0916 24.8271 58.6091C24.9846 58.8623 24.9142 59.1999 24.6699 59.3631C24.4256 59.5264 24.0999 59.4534 23.9424 59.2002C23.4649 58.4326 22.9806 57.8013 22.4897 57.3032C21.428 57.5555 20.913 57.9724 20.8247 58.5327C20.7778 58.83 20.5072 59.0317 20.2203 58.9831C19.9335 58.9345 19.7389 58.6541 19.7858 58.3568C19.9228 57.4875 20.5117 56.8648 21.489 56.4773C20.8693 56.0804 20.2394 55.8849 19.5997 55.8849C19.309 55.8849 19.0733 55.6407 19.0733 55.3395Z" clip-rule="evenodd" fill-rule="evenodd"></path>
<path fill="#FFBC57" d="M78.8384 60.8182C77.005 64.4455 75.838 71.7 78.8383 71.7C81.8388 71.7 80.8388 63.9273 78.8384 60.8182Z"></path>
<path fill="#FFBC57" d="M20.8384 60.8182C19.005 64.4455 17.838 71.7 20.8383 71.7C23.8388 71.7 22.8388 63.9273 20.8384 60.8182Z"></path>
<path fill="#FFCDBB" d="M25.2001 43.9273C25.9858 30.5223 37.4428 20.4 50.8708 20.4C64.2238 20.4 75.5938 30.4178 76.6499 43.729C76.9115 47.0251 77.056 49.6523 76.9646 50.6954C76.6207 54.6212 76.143 56.6587 75.0651 61.8197C73.4461 73.5565 65.2253 83.4529 53.4344 84.6135L50.6803 84.8846L47.7567 84.5806C36.6422 83.4252 28.0671 74.6387 26.5974 63.5614C26.2201 61.1923 25.2805 56.6777 25.024 50.2543C24.9672 48.8325 25.0448 46.5773 25.2001 43.9273Z" clip-rule="evenodd" fill-rule="evenodd"></path>
<mask height="65" width="52" y="20" x="25" maskUnits="userSpaceOnUse" style="mask-type:alpha" id="mask3_1:1126">
<path fill="white" d="M25.2001 43.9273C25.9858 30.5223 37.4428 20.4 50.8708 20.4C64.2238 20.4 75.5938 30.4178 76.6499 43.729C76.9115 47.0251 77.056 49.6523 76.9646 50.6954C76.6207 54.6212 76.143 56.6587 75.0651 61.8197C73.4461 73.5565 65.2253 83.4529 53.4344 84.6135L50.6803 84.8846L47.7567 84.5806C36.6422 83.4252 28.0671 74.6387 26.5974 63.5614C26.2201 61.1923 25.2805 56.6777 25.024 50.2543C24.9672 48.8325 25.0448 46.5773 25.2001 43.9273Z" clip-rule="evenodd" fill-rule="evenodd"></path>
</mask>
<g mask="url(#mask3_1:1126)">
<path fill="#FAB5A3" d="M42.3724 39.0545C40.0884 46.5163 29.6835 49.9363 24.7666 50.9727L33.3316 23.5091H53.7924C64.2608 31.6272 83.4845 48.1745 76.6325 49.4182C66.1641 48.9 58.075 45.7909 55.6958 43.7182C53.3166 44.2363 46.6549 42.6818 42.3724 39.0545Z"></path>
<ellipse fill="#FFA2A2" ry="5.25491" rx="4.82546" cy="72.4539" cx="67.6594" opacity="0.624907"></ellipse>
<ellipse fill="#FFA2A2" ry="5.25491" rx="4.82546" cy="72.4539" cx="33.3997" opacity="0.624907"></ellipse>
<ellipse fill="#42273C" ry="4.44646" rx="2.96951" cy="58.4768" cx="62.3328"></ellipse>
<ellipse fill="#42273C" ry="4.44646" rx="2.96951" cy="58.4768" cx="39.3201"></ellipse>
<path fill="#31162B" d="M67.917 50.8809C67.917 50.8809 59.2659 49.5255 56.1717 50.8949C59.7422 47.1436 65.4607 48.7033 65.4607 48.7033L67.917 50.8809Z" clip-rule="evenodd" fill-rule="evenodd"></path>
<path fill="#31162B" d="M33.332 50.8809C33.332 50.8809 41.9831 49.5255 45.0773 50.8949C41.5068 47.1436 35.7883 48.7033 35.7883 48.7033L33.332 50.8809Z" clip-rule="evenodd" fill-rule="evenodd"></path>
<path stroke-linecap="round" stroke-width="1.40415" stroke="#D97B7B" d="M50.7653 53.5693C50.7653 53.5693 51.7257 59.6792 50.1417 61.3917C48.5577 63.1041 49.0547 66.122 50.9005 66.6967"></path>
<path stroke-linecap="round" stroke-width="1.40415" stroke="#DA7B7B" d="M47.4463 72.854C47.4463 72.854 52.3029 72.685 54.5177 70.4444"></path>
</g>
<path fill="#373766" d="M19.0521 96C12.5145 98.0741 10.5029 107.062 10 110H94.9895C95.1571 106.025 93.3802 97.6593 84.9316 96C73.8679 102.222 33.6361 102.741 19.0521 96Z"></path>
<path fill="#262650" d="M23 104L21 115V118.5L85 123V115L83.5 104V115H23V104Z"></path>
<path fill="#31162B" d="M24.5846 51C38.5522 46.3636 41.5455 36.5758 41.5455 30.9091C42.3878 32.4317 43.042 40.697 54.5151 42.7576C53.0186 41.2121 53.0186 41.2121 52.5197 39.6667C53.0186 40.9999 56.0116 43.7879 62.9952 46.3636C69.9788 48.9394 75.7327 50.0813 77.4613 49.9697C77.4613 49.9697 78.9578 42.7576 76.9624 37.0909C74.9671 31.4242 66.9858 19.5758 66.9858 19.5758L44.0391 17L29.0744 21.6364C21.0932 30.7374 22.5898 43.7879 24.5846 51Z"></path>
<mask height="35" width="57" y="16" x="21" maskUnits="userSpaceOnUse" style="mask-type:alpha" id="mask4_1:1126">
<path fill="#31162B" d="M22.4996 50.9728C36.9994 48.3819 41.5 36.4637 41.5 30.7637C42.3443 32.2953 43 40.6091 54.5 42.6819C53 41.1273 53 41.1273 52.5 39.5728C53 40.9139 56 43.7182 63 46.3091C70 48.9 75.7674 50.0486 77.5 49.9364L76 36.4637L67 19.3637L43.9994 16.7728L28.9997 21.4364C20.9997 30.5909 19.4994 41.1273 22.4996 50.9728Z"></path>
</mask>
<g mask="url(#mask4_1:1126)">
<path fill="#241020" d="M58.5 45.791C51.7 42.4746 50 33.7001 50 29.7273C50 29.7273 52.5 35.4273 58 40.6091C63.5 45.791 78 49.4182 78 49.4182C72.5 50.4546 66.5 48.6928 58.5 45.791Z"></path>
<path fill="#241020" d="M40.0002 24.0273C41.7908 34.9091 34.5003 46.8273 24.5 50.9728C14.4997 55.1182 30.5002 52.5273 30.5002 52.5273L41.5006 39.5728C41.3339 37.1546 43.0006 32.3182 40.0002 24.0273Z"></path>
</g>
</g>
</svg>
