<svg xmlns="http://www.w3.org/2000/svg" fill="none" viewBox="0 0 110 111" height="111" width="110">
<path fill="#FAB5A3" d="M46.5049 85.6077C46.5049 85.6077 48.4955 93.2563 46.9936 96.1222C45.8537 97.4541 43.8417 98.0893 42.2481 98.2871C46.877 100.375 63.9556 100.65 67.7064 98.2871C63.5585 98.3373 62.4928 95.4757 62.4928 95.4757C62.4928 95.4757 62.4824 90.569 63.3827 86.0906C59.5401 83.1791 46.5049 85.6077 46.5049 85.6077Z" clip-rule="evenodd" fill-rule="evenodd"></path>
<mask height="16" width="26" y="84" x="42" maskUnits="userSpaceOnUse" style="mask-type:alpha" id="mask0_1:1169">
<path fill="white" d="M46.5049 85.6077C46.5049 85.6077 48.4955 93.2563 46.9936 96.1222C45.8537 97.4541 43.8417 98.0893 42.2481 98.2871C46.877 100.375 63.9556 100.65 67.7064 98.2871C63.5585 98.3373 62.4928 95.4757 62.4928 95.4757C62.4928 95.4757 62.4824 90.569 63.3827 86.0906C59.5401 83.1791 46.5049 85.6077 46.5049 85.6077Z" clip-rule="evenodd" fill-rule="evenodd"></path>
</mask>
<g mask="url(#mask0_1:1169)">
<g opacity="0.348749" style="mix-blend-mode:multiply">
<path fill="#E89A85" d="M47.1443 88.8233C47.1443 88.8233 54.3324 97.2768 65.3528 97.9005C73.4588 99.3275 66.3276 84.5032 66.3276 84.5032L47.1443 88.8233Z" clip-rule="evenodd" fill-rule="evenodd"></path>
</g>
</g>
<path fill="white" d="M40.3661 97.8285L45.3461 96.7786C45.3461 96.7786 54.6205 100.831 64.2062 96.7786C64.1 96.6967 68.762 97.8285 68.762 97.8285C68.762 97.8285 63.5556 102.836 53.2299 102.527C42.9042 102.217 40.3661 97.8285 40.3661 97.8285Z" clip-rule="evenodd" fill-rule="evenodd"></path>
<path fill="#D26161" d="M41.5765 97.0598C41.5765 97.0598 53.9327 103.656 66.7568 97.0598C74.7514 98.4622 86.3168 101.918 90.6696 104.422C95.0224 106.925 95.1006 110.012 95.1006 110.012H15C15 110.012 15.3184 107.326 18.83 104.661C22.3416 101.995 41.5765 97.0598 41.5765 97.0598Z" clip-rule="evenodd" fill-rule="evenodd"></path>
<mask height="14" width="81" y="97" x="15" maskUnits="userSpaceOnUse" style="mask-type:alpha" id="mask1_1:1169">
<path fill="white" d="M41.5765 97.0598C41.5765 97.0598 53.9327 103.656 66.7568 97.0598C74.7514 98.4622 86.3168 101.918 90.6696 104.422C95.0224 106.925 95.1006 110.012 95.1006 110.012H15C15 110.012 15.3184 107.326 18.83 104.661C22.3416 101.995 41.5765 97.0598 41.5765 97.0598Z" clip-rule="evenodd" fill-rule="evenodd"></path>
</mask>
<g mask="url(#mask1_1:1169)">
<path fill="#FD8787" d="M39.3676 106.719L37.3518 113.563L72.6018 114.446L70.1953 106.719C70.1953 106.719 57.1764 106.719 51.6327 106.719C46.0889 106.719 39.3676 106.719 39.3676 106.719Z" clip-rule="evenodd" fill-rule="evenodd"></path>
<path fill="white" d="M38.7757 96.0939C42.5582 99.6075 47.7618 102.331 54.4202 102.331C60.5212 102.534 65.577 99.6885 69.039 96.6057L69.2229 96.4394L69.6648 96.7848C66.0837 100.072 60.7893 103.053 54.4084 102.84C47.7194 102.84 42.4224 100.125 38.5382 96.6263L38.3314 96.4372L38.7757 96.0939Z"></path>
</g>
<path fill="#FAB5A3" d="M76.9948 59.2057C76.9948 59.2057 84.748 52.1693 89.3154 55.798C93.8829 59.4266 87.5316 72.32 78.3012 71.7477C69.0709 71.1753 76.9948 59.2057 76.9948 59.2057Z" clip-rule="evenodd" fill-rule="evenodd"></path>
<path fill="#C26B6B" d="M85.7342 59.5683C85.6585 59.3633 85.4301 59.258 85.2239 59.3332C82.2433 60.4205 80.2466 62.8008 79.246 66.4324C79.188 66.643 79.3127 66.8606 79.5245 66.9183C79.7363 66.976 79.9551 66.852 80.0131 66.6414C80.4705 64.9813 81.14 63.6132 82.0229 62.5321C82.0621 62.5539 82.1056 62.5694 82.1524 62.577C83.4644 62.7918 84.2376 63.3453 84.5384 64.2438C84.6077 64.451 84.8329 64.5631 85.0413 64.4941C85.2497 64.4251 85.3624 64.2012 85.293 63.994C84.9207 62.8817 84.0165 62.17 82.6329 61.864C83.4411 61.0729 84.3958 60.4778 85.4978 60.0758C85.704 60.0005 85.8098 59.7733 85.7342 59.5683Z" clip-rule="evenodd" fill-rule="evenodd"></path>
<path fill="#FAB5A3" d="M32.2936 59.6547C32.2936 59.6547 24.5404 52.6183 19.973 56.247C15.4055 59.8756 21.7569 72.7689 30.9872 72.1966C40.2176 71.6243 32.2936 59.6547 32.2936 59.6547Z" clip-rule="evenodd" fill-rule="evenodd"></path>
<path fill="#C26B6B" d="M23.2145 59.516C23.2902 59.3109 23.5186 59.2057 23.7248 59.2809C26.7054 60.3682 28.7021 62.7485 29.7027 66.3801C29.7607 66.5907 29.6361 66.8082 29.4242 66.866C29.2124 66.9237 28.9937 66.7997 28.9356 66.5891C28.4782 64.929 27.8087 63.5608 26.9257 62.4797C26.8865 62.5015 26.843 62.517 26.7961 62.5247C25.4841 62.7394 24.7109 63.293 24.4102 64.1915C24.3408 64.3987 24.1157 64.5108 23.9073 64.4418C23.6989 64.3728 23.5862 64.1489 23.6556 63.9417C24.0279 62.8293 24.9321 62.1177 26.3157 61.8116C25.5076 61.0205 24.5529 60.4254 23.4509 60.0234C23.2447 59.9482 23.1389 59.721 23.2145 59.516Z" clip-rule="evenodd" fill-rule="evenodd"></path>
<path fill="#FFD4C6" d="M26.2935 47.6753C24.7626 31.9934 36.4303 18.0899 52.1337 16.7989C69.3366 15.3846 83.8394 29.6 82.6776 46.8218L81.2992 67.2552C80.3686 81.0503 68.8685 91.7419 55.0423 91.6664C41.1956 91.7425 29.5716 81.256 28.2263 67.4747L26.2935 47.6753Z" clip-rule="evenodd" fill-rule="evenodd"></path>
<mask height="76" width="57" y="16" x="26" maskUnits="userSpaceOnUse" style="mask-type:alpha" id="mask2_1:1169">
<path fill="white" d="M26.2935 47.6753C24.7626 31.9934 36.4303 18.0899 52.1337 16.7989C69.3366 15.3846 83.8394 29.6 82.6776 46.8218L81.2992 67.2552C80.3686 81.0503 68.8685 91.7419 55.0423 91.6664C41.1956 91.7425 29.5716 81.256 28.2263 67.4747L26.2935 47.6753Z" clip-rule="evenodd" fill-rule="evenodd"></path>
</mask>
<g mask="url(#mask2_1:1169)">
<ellipse fill="#FFA2A2" ry="3.16367" rx="4.77204" cy="71.9636" cx="71.7444" opacity="0.624907"></ellipse>
<ellipse fill="#FFA2A2" ry="3.16367" rx="4.77204" cy="73.8766" cx="37.811" opacity="0.624907"></ellipse>
<path fill="#FAB5A3" d="M40.9847 38.3003C40.9847 38.3003 63.9005 31.8423 70.1537 49.6418C78.0154 46.4696 78.7486 27.8452 78.7486 27.8452L51.0655 24.2451C51.0655 24.2451 43.3106 29.1407 41.1238 32.2467C38.9369 35.3527 40.9847 38.3003 40.9847 38.3003Z" clip-rule="evenodd" fill-rule="evenodd" opacity="0.509789"></path>
<path fill="#AA7758" d="M73.3357 42.5538V53.5834C73.3357 53.5834 77.2574 53.9009 78.8658 55.8403C80.4742 57.7798 81.8258 64.031 81.8258 64.031L84.1629 40.7758L73.3357 42.5538Z" clip-rule="evenodd" fill-rule="evenodd"></path>
<path fill="#AA7758" d="M34.0558 44.1357V55.1653C34.0558 55.1653 30.1341 55.4827 28.5257 57.4222C26.9174 59.3616 26.563 65.1081 26.563 65.1081L23.2287 42.3577L34.0558 44.1357Z" clip-rule="evenodd" fill-rule="evenodd"></path>
<path stroke-linecap="round" stroke-width="1.45823" stroke="#DA7B7B" d="M51.0658 78.7118C51.0658 78.7118 53.0342 79.0819 55.0107 79.0819C56.9873 79.0819 59.0192 78.291 59.0192 78.291"></path>
<rect fill="#83573D" rx="2.78369" height="7.02928" width="5.56738" y="58.518" x="64.5865"></rect>
<rect fill="#83573D" rx="2.78369" height="7.02928" width="5.56738" y="59.3089" x="38.3409"></rect>
<path fill="#65422D" d="M62.2007 56.8265C62.2007 56.8265 69.0685 54.9538 71.637 55.0073C67.2226 48.5771 62.2007 56.8265 62.2007 56.8265Z" clip-rule="evenodd" fill-rule="evenodd"></path>
<path fill="#65422D" d="M46.1859 56.8265C46.1859 56.8265 39.3182 54.9538 36.7496 55.0073C41.164 48.5771 46.1859 56.8265 46.1859 56.8265Z" clip-rule="evenodd" fill-rule="evenodd"></path>
<path fill="#F28080" d="M53.9267 59.396C54.3175 59.4551 54.5863 59.818 54.5269 60.2067L54.3945 61.0834C53.9023 64.3806 53.5879 66.9463 53.4511 68.7758L53.4343 69.0103C53.3671 69.9875 53.3551 70.7314 53.3961 71.2317C53.4069 71.3639 53.4212 71.4748 53.4375 71.5626L53.449 71.6211L53.4814 71.6286C53.9775 71.7207 55.0123 71.5947 56.5047 71.2108L56.9938 71.0803C57.3747 70.975 57.7693 71.1968 57.8751 71.5755C57.9809 71.9543 57.758 72.3467 57.3771 72.452C55.0403 73.0976 53.528 73.2593 52.6792 72.8579C51.5327 72.3157 51.7808 68.7054 53.1115 59.9929C53.1663 59.6341 53.4815 59.3788 53.8371 59.3881L53.9267 59.396Z"></path>
</g>
<path fill="#65422D" d="M38.0859 21.1454C38.0859 21.1454 25.0876 22.6516 24.0423 35.8704C23.8338 43.4669 25.9847 49.5061 25.9847 49.5061L29.1106 49.4832C29.1106 49.4832 30.3072 50.9734 31.7904 51.3967C33.2735 51.82 36.0161 52.6396 36.0161 52.6396C36.0161 52.6396 35.2247 38.183 40.9847 38.3004C42.6041 31.9908 63.3383 30.1116 68.2686 37.8122C71.7979 43.8086 69.909 50.4418 69.909 50.4418C69.909 50.4418 73.0437 50.0873 74.1325 48.9783C75.2213 47.8693 75.1749 47.2577 75.6454 47.1838C76.4346 47.1082 77.2647 48.75 78.3641 48.2313C78.8618 47.9965 79.2092 46.7294 79.9995 46.3007C79.8766 45.8035 81.9517 47.0149 82.306 46.6282C84.4379 41.2624 86.8211 28.6027 75.6286 20.1247C71.5067 17.0025 65.1703 9.77943 48.6383 12.4256C41.8235 13.8228 38.0859 21.1454 38.0859 21.1454Z" clip-rule="evenodd" fill-rule="evenodd"></path>
<mask height="42" width="61" y="11" x="24" maskUnits="userSpaceOnUse" style="mask-type:alpha" id="mask3_1:1169">
<path fill="white" d="M38.0859 21.1454C38.0859 21.1454 25.0876 22.6516 24.0423 35.8704C23.8338 43.4669 25.9847 49.5061 25.9847 49.5061L29.1106 49.4832C29.1106 49.4832 30.3072 50.9734 31.7904 51.3967C33.2735 51.82 36.0161 52.6396 36.0161 52.6396C36.0161 52.6396 35.2247 38.183 40.9847 38.3004C42.6041 31.9908 63.3383 30.1116 68.2686 37.8122C71.7979 43.8086 69.909 50.4418 69.909 50.4418C69.909 50.4418 73.0437 50.0873 74.1325 48.9783C75.2213 47.8693 75.1749 47.2577 75.6454 47.1838C76.4346 47.1082 77.2647 48.75 78.3641 48.2313C78.8618 47.9965 79.2092 46.7294 79.9995 46.3007C79.8766 45.8035 81.9517 47.0149 82.306 46.6282C84.4379 41.2624 86.8211 28.6027 75.6286 20.1247C71.5067 17.0025 65.1703 9.77943 48.6383 12.4256C41.8235 13.8228 38.0859 21.1454 38.0859 21.1454Z" clip-rule="evenodd" fill-rule="evenodd"></path>
</mask>
<g mask="url(#mask3_1:1169)">
<path fill="#533524" d="M75.6458 47.1838C75.6458 47.1838 77.366 41.5847 77.366 38.367C78.1866 47.2358 77.366 48.8937 77.366 48.8937L75.6458 47.1838Z" clip-rule="evenodd" fill-rule="evenodd"></path>
<path fill="#533524" d="M72.5858 42.7805C72.5858 42.7805 70.0154 53.5885 67.2752 52.1955L43.1498 38.0277L43.0331 39.1216C41.1137 56.7212 38.5535 61.1819 35.3524 52.5037C31.575 42.2259 32.6254 37.416 39.6961 36.7023C39.7912 30.9403 43.9266 23.6753 58.5194 26.1327C58.5194 26.1327 74.5757 30.4646 72.5858 42.7805Z" clip-rule="evenodd" fill-rule="evenodd"></path>
<path fill="#533524" d="M37.7084 22.2899C37.7084 22.2899 35.4385 24.9205 35.4385 27.4961C33.3593 28.26 30.601 30.4456 30.601 34.6269C32.8655 30.646 35.9542 29.8534 35.9542 29.8534C35.9542 29.8534 37.4583 32.3327 38.3403 33.2086C37.7892 31.1077 37.2074 28.5734 37.1589 26.4254C37.1471 25.9027 39.6154 24.2758 40.8977 23.6583C40.9052 23.4402 38.285 24.1271 37.1589 24.9019C37.2021 24.3147 37.7084 22.2899 37.7084 22.2899Z" clip-rule="evenodd" fill-rule="evenodd" opacity="0.57115"></path>
<path fill="#533524" d="M56.633 22.1463C56.633 22.1463 71.2295 24.6062 74.1604 32.2946C72.2796 21.8114 56.633 22.1463 56.633 22.1463Z" clip-rule="evenodd" fill-rule="evenodd"></path>
<path fill="#533524" d="M71.727 21.5419C71.727 21.5419 77.5625 27.0732 76.5294 31.4344C78.893 26.1284 71.727 21.5419 71.727 21.5419Z" clip-rule="evenodd" fill-rule="evenodd"></path>
</g>
</svg>
