<svg xmlns="http://www.w3.org/2000/svg" fill="none" viewBox="0 0 110 111" height="111" width="110">
<path fill="#FFB5A1" d="M45.0638 82.9503C45.0638 82.9503 46.6183 91.4917 44.8 94.2199C45.7601 95.728 50.6931 101.222 55.2994 101.226C59.1389 101.229 62.5932 96.1497 64.808 93.6278C62.6169 92.0121 63.619 82.8333 63.619 82.8333L45.0638 82.9503Z" clip-rule="evenodd" fill-rule="evenodd"></path>
<mask height="20" width="21" y="82" x="44" maskUnits="userSpaceOnUse" style="mask-type:alpha" id="mask0_1:1028">
<path fill="white" d="M45.0638 82.9503C45.0638 82.9503 46.6183 91.4917 44.8 94.2199C45.7601 95.728 50.6931 101.222 55.2994 101.226C59.1389 101.229 62.5932 96.1497 64.808 93.6278C62.6169 92.0121 63.619 82.8333 63.619 82.8333L45.0638 82.9503Z" clip-rule="evenodd" fill-rule="evenodd"></path>
</mask>
<g mask="url(#mask0_1:1028)">
<g opacity="0.348749" style="mix-blend-mode:multiply">
<path fill="#E89A85" d="M45.5928 84.722C45.5928 84.722 53.4715 92.3613 63.8877 89.6324C74.3039 86.9034 66.1804 78.5558 66.1804 78.5558L45.5928 84.722Z" clip-rule="evenodd" fill-rule="evenodd"></path>
</g>
</g>
<path fill="#7170EE" d="M43.5366 93.8098C43.5366 93.8098 32.9961 96.7657 32.75 96.8431C24.3926 98.5275 22.0505 99.3563 19.9501 100.568C15.677 103.032 14 110.09 14 110.09L96.5 109.997C96.5 109.997 95.1681 102.787 90.3424 100.74C88.0591 99.7707 84.0913 98.9054 76.6955 96.8431C76.3327 96.7033 65.6979 93.4415 65.6979 93.4415C65.6979 93.4415 64.9075 92.9045 63.8271 91.3896C59.4094 94.9402 56.3809 96.7084 55.0402 96.7441C52.818 96.6707 48.6934 93.9015 45.7103 91.7157C45.1578 92.4521 43.5366 93.8098 43.5366 93.8098Z" clip-rule="evenodd" fill-rule="evenodd"></path>
<mask height="20" width="83" y="91" x="14" maskUnits="userSpaceOnUse" style="mask-type:alpha" id="mask1_1:1028">
<path fill="white" d="M43.5366 93.8098C43.5366 93.8098 32.9961 96.7657 32.75 96.8431C24.3926 98.5275 22.0505 99.3563 19.9501 100.568C15.677 103.032 14 110.09 14 110.09L96.5 109.997C96.5 109.997 95.1681 102.787 90.3424 100.74C88.0591 99.7707 84.0913 98.9054 76.6955 96.8431C76.3327 96.7033 65.6979 93.4415 65.6979 93.4415C65.6979 93.4415 64.9075 92.9045 63.8271 91.3896C59.4094 94.9402 56.3809 96.7084 55.0402 96.7441C52.818 96.6707 48.6934 93.9015 45.7103 91.7157C45.1578 92.4521 43.5366 93.8098 43.5366 93.8098Z" clip-rule="evenodd" fill-rule="evenodd"></path>
</mask>
<g mask="url(#mask1_1:1028)">
<path fill="#5352CD" d="M35.7196 94.8943L29.6598 99.1563L35.7196 100.438L32.0181 104.081L39.5218 114.027C39.5218 114.027 49.3837 111.734 49.3837 111.685C49.3837 111.637 46.7871 91.4998 46.7871 91.4998L35.7196 94.8943Z" clip-rule="evenodd" fill-rule="evenodd"></path>
<path fill="#5352CD" d="M74.3356 94.2064L80.3954 98.4683L74.3356 99.7496L78.0371 103.393L70.5334 113.339C70.5334 113.339 60.6715 111.046 60.6715 110.998C60.6715 110.949 63.2681 90.8119 63.2681 90.8119L74.3356 94.2064Z" clip-rule="evenodd" fill-rule="evenodd"></path>
<path fill="white" d="M66.0874 93.3415C66.0874 93.3415 67.6764 89.5576 62.3418 89.9632C60.3613 90.7802 55.3447 95.8408 55.3447 95.8408L43.0641 89.1896L44.2695 93.6128L47.5349 110.921L63.7099 111.467L66.0874 93.3415Z" clip-rule="evenodd" fill-rule="evenodd"></path>
<mask height="23" width="24" y="89" x="43" maskUnits="userSpaceOnUse" style="mask-type:alpha" id="mask2_1:1028">
<path fill="white" d="M66.0874 93.3415C66.0874 93.3415 67.6764 89.5576 62.3418 89.9632C60.3613 90.7802 55.3447 95.8408 55.3447 95.8408L43.0641 89.1896L44.2695 93.6128L47.5349 110.921L63.7099 111.467L66.0874 93.3415Z" clip-rule="evenodd" fill-rule="evenodd"></path>
</mask>
<g mask="url(#mask2_1:1028)">
<path fill="#F8F8F8" d="M43.9925 98.6276C43.9925 98.6276 46.4248 101.71 47.0007 101.294C51.116 98.3258 53.9568 96.937 55.4655 96.937C56.9842 96.937 59.7502 98.2685 63.7636 100.931C64.2952 101.284 66.4521 98.272 66.4521 98.272L64.554 111.225H43.0641L43.9925 98.6276Z" clip-rule="evenodd" fill-rule="evenodd"></path>
<mask height="16" width="24" y="96" x="43" maskUnits="userSpaceOnUse" style="mask-type:alpha" id="mask3_1:1028">
<path fill="white" d="M43.9925 98.6276C43.9925 98.6276 46.4248 101.71 47.0007 101.294C51.116 98.3258 53.9568 96.937 55.4655 96.937C56.9842 96.937 59.7502 98.2685 63.7636 100.931C64.2952 101.284 66.4521 98.272 66.4521 98.272L64.554 111.225H43.0641L43.9925 98.6276Z" clip-rule="evenodd" fill-rule="evenodd"></path>
</mask>
<g mask="url(#mask3_1:1028)">
<path fill="#8EB1F2" d="M52.2748 101.011C52.2748 101.011 49.3374 105.172 47.6016 110.313C47.6016 112.444 63.2363 111.146 63.2363 111.146C63.2363 111.146 60.6641 103.167 58.5407 101.011C55.5317 100.609 52.2748 101.011 52.2748 101.011Z" clip-rule="evenodd" fill-rule="evenodd"></path>
<path fill="#A0C1FF" d="M53.1682 96.7861L49.3838 98.8179C49.3838 98.8179 50.6561 100.679 52.4041 101.492C53.7646 101.919 57.0356 101.967 58.4744 101.492C60.4076 101.125 61.4774 97.9032 61.4774 96.7861C61.4774 95.6689 53.1682 96.7861 53.1682 96.7861Z" clip-rule="evenodd" fill-rule="evenodd"></path>
<g style="mix-blend-mode:multiply">
<path fill="#B7C2D8" d="M45.2251 100.438C45.2251 100.438 45.6434 102.289 46.6224 102.06C47.6014 101.83 52.8274 96.937 55.4655 96.937C58.1527 96.937 63.2524 101.643 63.9323 101.643C64.6842 101.643 66.4521 100.271 66.4521 100.271L65.4242 96.795L49.3837 96.2275L45.2251 100.438Z" clip-rule="evenodd" fill-rule="evenodd"></path>
</g>
</g>
</g>
<path fill="#E26868" d="M39.1016 94.6896L39.7863 94.8657L39.4273 94.9626C39.4273 94.9626 42.4208 102.891 50.3 111.175C49.5343 111.198 49.0322 111.19 48.8452 111.175C41.6942 103.982 38.2 95.1027 38.2 95.1027L38.3185 94.8657L39.1016 94.6896Z" clip-rule="evenodd" fill-rule="evenodd"></path>
<path fill="#E26868" d="M69.1984 93.5897L68.5137 93.7657L68.8727 93.8626C68.8727 93.8626 65.8792 101.791 58 110.075C58.7657 110.098 59.2678 110.09 59.4548 110.075C66.6058 102.882 70.1 94.0027 70.1 94.0027L69.9815 93.7657L69.1984 93.5897Z" clip-rule="evenodd" fill-rule="evenodd"></path>
</g>
<path fill="#FFB5A1" d="M77.6851 51.5394C77.6851 51.5394 81.0621 39.1103 89.5329 42.7374C98.0037 46.3646 90.8849 63.5277 79.3582 62.7447C67.8314 61.9618 77.6851 51.5394 77.6851 51.5394Z" clip-rule="evenodd" fill-rule="evenodd"></path>
<path fill="#FFB5A1" d="M31.7651 51.9714C31.7651 51.9714 28.3881 40.0203 19.9174 43.5079C11.4466 46.9956 18.5653 63.4986 30.0921 62.7457C41.6189 61.9929 31.7651 51.9714 31.7651 51.9714Z" clip-rule="evenodd" fill-rule="evenodd"></path>
<path fill="#C26B6B" d="M87.2104 49.5506C87.2104 49.1741 86.9052 48.8689 86.5286 48.8689C84.042 48.8689 81.7862 50.4907 79.7579 53.637C79.5539 53.9534 79.6451 54.3753 79.9615 54.5793C80.278 54.7833 80.6999 54.6922 80.9039 54.3757C81.5224 53.4164 82.1496 52.6274 82.7855 52.0049C84.1605 52.3202 84.8275 52.8412 84.9419 53.5415C85.0026 53.913 85.3531 54.1651 85.7246 54.1043C86.0962 54.0436 86.3482 53.6932 86.2875 53.3216C86.11 52.2353 85.3474 51.4569 84.0816 50.9727C84.8842 50.4766 85.7 50.2324 86.5286 50.2324C86.9052 50.2324 87.2104 49.9272 87.2104 49.5506Z" clip-rule="evenodd" fill-rule="evenodd"></path>
<path fill="#C26B6B" d="M20.8339 49.5506C20.8339 49.1741 21.1391 48.8689 21.5156 48.8689C24.0023 48.8689 26.2581 50.4907 28.2864 53.637C28.4904 53.9534 28.3992 54.3753 28.0828 54.5793C27.7663 54.7833 27.3444 54.6922 27.1404 54.3757C26.5219 53.4164 25.8947 52.6274 25.2588 52.0049C23.8838 52.3202 23.2168 52.8412 23.1024 53.5415C23.0417 53.913 22.6912 54.1651 22.3196 54.1043C21.9481 54.0436 21.6961 53.6932 21.7568 53.3216C21.9343 52.2353 22.6969 51.4569 23.9627 50.9727C23.1601 50.4766 22.3443 50.2324 21.5156 50.2324C21.1391 50.2324 20.8339 49.9272 20.8339 49.5506Z" clip-rule="evenodd" fill-rule="evenodd"></path>
<path fill="#FFD4C6" d="M25.74 43.8149C24.371 28.3785 35.826 14.7767 51.2703 13.4998L52.88 13.3667C69.8816 11.9611 84.1632 25.9861 83.0661 43.0104L81.8574 61.7661C81.0058 74.9802 70.9962 85.7821 57.8851 87.6358L55.0438 88.0375L52.5583 87.7992C39.1602 86.5144 28.582 75.8603 27.393 62.4534L25.74 43.8149Z" clip-rule="evenodd" fill-rule="evenodd"></path>
<mask height="76" width="59" y="13" x="25" maskUnits="userSpaceOnUse" style="mask-type:alpha" id="mask4_1:1028">
<path fill="white" d="M25.74 43.8149C24.371 28.3785 35.826 14.7767 51.2703 13.4998L52.88 13.3667C69.8816 11.9611 84.1632 25.9861 83.0661 43.0104L81.8574 61.7661C81.0058 74.9802 70.9962 85.7821 57.8851 87.6358L55.0438 88.0375L52.5583 87.7992C39.1602 86.5144 28.582 75.8603 27.393 62.4534L25.74 43.8149Z" clip-rule="evenodd" fill-rule="evenodd"></path>
</mask>
<g mask="url(#mask4_1:1028)">
<g opacity="0.348749" style="mix-blend-mode:multiply">
<path fill="#E89A85" d="M33.6121 33.3445C33.6121 33.3445 34.8711 25.0292 41.4929 30.222C48.1146 35.4148 59.6167 28.7034 59.6167 28.7034L43.1124 19.6223L30.9929 22.381L33.6121 33.3445Z" clip-rule="evenodd" fill-rule="evenodd"></path>
</g>
<ellipse fill="#FFA2A2" ry="2.67342" rx="4.4557" cy="62.4449" cx="73.4111" opacity="0.624907"></ellipse>
<ellipse fill="#FFA2A2" ry="2.67342" rx="4.4557" cy="62.4449" cx="36.8744" opacity="0.624907"></ellipse>
<rect fill="#835B5B" rx="3.11899" height="8.91139" width="6.23797" y="49.9689" x="65.3909"></rect>
<rect fill="#835B5B" rx="3.11899" height="8.91139" width="6.23797" y="49.9689" x="38.6567"></rect>
<path fill="#835B5B" d="M62.132 46.9817C62.132 46.9817 69.2116 44.362 72.8145 45.9096C67.5032 38.7888 62.132 46.9817 62.132 46.9817Z" clip-rule="evenodd" fill-rule="evenodd"></path>
<path fill="#835B5B" d="M48.3354 47.4814C48.3354 47.4814 41.3515 44.6163 37.6969 46.0372C43.2535 39.1061 48.3354 47.4814 48.3354 47.4814Z" clip-rule="evenodd" fill-rule="evenodd"></path>
<path stroke-linecap="round" stroke-width="1.60405" stroke="#D97B7B" d="M53.8401 52.8896C53.8401 52.8896 51.2584 63.7227 51.4082 64.5673C51.558 65.412 56.9 64.5673 56.9 64.5673"></path>
<path fill="#A34F4F" d="M49.2 70.4644L58.9977 69.3896C58.9977 69.3896 58.5182 75.5436 54.1835 75.8038C49.8488 76.0641 49.2 70.4644 49.2 70.4644Z" clip-rule="evenodd" fill-rule="evenodd"></path>
</g>
<path fill="#1F2247" d="M38.9419 25.1354C38.9419 25.1354 49.251 32.513 56.9012 29.9068C61.6789 33.9671 68.9955 36.5853 76.2329 32.496C76.8482 34.9669 76.917 38.9261 77.569 41.4877C78.534 45.4931 82.8629 47.793 82.8629 47.793C82.8629 47.793 83.6931 34.1864 84.5648 28.7962C91.0077 25.2827 91.4133 7.92909 84.3259 4.94186C77.2386 1.95463 71.9314 6.88113 63.2939 7.65966C54.6565 8.43819 52.3121 3.38096 40.9006 3.93071C29.4892 4.48046 17.2859 15.9912 23.2569 28.7962C25.5838 41.2754 26.5284 50.167 26.5284 50.167C26.5284 50.167 29.6263 49.1818 30.8558 47.2412C33.905 42.4285 33.8822 35.0607 33.3261 31.5219C32.1555 24.0734 38.9419 25.1354 38.9419 25.1354Z" clip-rule="evenodd" fill-rule="evenodd"></path>
<mask height="48" width="69" y="3" x="21" maskUnits="userSpaceOnUse" style="mask-type:alpha" id="mask5_1:1028">
<path fill="white" d="M38.9419 25.1354C38.9419 25.1354 49.251 32.513 56.9012 29.9068C61.6789 33.9671 68.9955 36.5853 76.2329 32.496C76.8482 34.9669 76.917 38.9261 77.569 41.4877C78.534 45.4931 82.8629 47.793 82.8629 47.793C82.8629 47.793 83.6931 34.1864 84.5648 28.7962C91.0077 25.2827 91.4133 7.92909 84.3259 4.94186C77.2386 1.95463 71.9314 6.88113 63.2939 7.65966C54.6565 8.43819 52.3121 3.38096 40.9006 3.93071C29.4892 4.48046 17.2859 15.9912 23.2569 28.7962C25.5838 41.2754 26.5284 50.167 26.5284 50.167C26.5284 50.167 29.6263 49.1818 30.8558 47.2412C33.905 42.4285 33.8822 35.0607 33.3261 31.5219C32.1555 24.0734 38.9419 25.1354 38.9419 25.1354Z" clip-rule="evenodd" fill-rule="evenodd"></path>
</mask>
<g mask="url(#mask5_1:1028)">
<path fill="#131533" d="M34.2593 25.9495C34.2593 25.9495 38.2618 19.4439 46.5851 23.6002C54.9085 27.7566 66.3442 29.5597 73.1438 25.9495C81.1416 27.1844 90.37 13.7024 86.2965 6.60116C82.223 -0.500111 94.7049 10.0613 94.7049 10.0613C94.7049 10.0613 91.1245 26.8 84.5648 28.7962C81.9004 32.0835 76.2329 32.496 76.2329 32.496C76.2329 32.496 55.5871 44.7908 47.3631 43.5082C39.1392 42.2255 34.2593 25.9495 34.2593 25.9495Z" clip-rule="evenodd" fill-rule="evenodd"></path>
<path fill="#131533" d="M22.5492 27.7975C22.5492 27.7975 26.7934 37.8645 33.4561 30.7611C50.1453 44.7165 76.2329 32.496 76.2329 32.496L85.1483 28.3727L86.2965 51.7785L24.6145 54.1134L22.5492 27.7975Z" clip-rule="evenodd" fill-rule="evenodd"></path>
<path fill="#131533" d="M36.3271 16.9749C39.7655 13.6827 43.0663 13.3142 46.2294 15.8695C51.1235 19.8232 56.3373 18.3124 56.3373 18.3124C56.3373 18.3124 53.1626 22.3131 46.7088 17.8421C40.255 13.3711 36.2189 17.0786 36.3271 16.9749Z" clip-rule="evenodd" fill-rule="evenodd" opacity="0.474493"></path>
<path fill="#131533" d="M33.6716 16.8605C37.5352 10.2096 42.4841 8.16539 48.5184 10.7278C57.8549 14.6925 65.2595 10.0196 65.2595 10.0196C65.2595 10.0196 62.1192 17.6543 50.1371 13.5807C38.155 9.50701 33.55 17.0699 33.6716 16.8605Z" clip-rule="evenodd" fill-rule="evenodd" opacity="0.474493"></path>
</g>
</svg>
