<svg xmlns:xlink="http://www.w3.org/1999/xlink" xmlns="http://www.w3.org/2000/svg" version="1.1" viewBox="0 0 231 235" height="235px" width="231px">
    
    <title>Slice 1</title>
    <desc>Created with Sketch.</desc>
    <defs></defs>
    <g fill-rule="evenodd" fill="none" stroke-width="1" stroke="none" id="Page-1">
        <g fill-rule="nonzero" id="bird">
            <g fill="#FFBB3F" transform="translate(66.000000, 185.000000)" id="Group">
                <g id="Shape" transform="translate(16.000000, 0.000000)">
                    <path d="M14.121,5.807 C14.121,5.807 7.262,12.422 5.416,30.187"></path>
                    <path d="M10.65,2.208 C9.813,3.015 2.42,10.64 0.443,29.67 C0.157,32.417 2.153,34.874 4.9,35.16 C7.647,35.443 10.105,33.45 10.39,30.703 C11.984,15.352 17.595,9.403 17.651,9.348 L17.592,9.406 C19.58,7.489 19.637,4.324 17.72,2.339 C15.803,0.348 12.637,0.291 10.65,2.208 Z"></path>
                </g>
                <path id="Shape" d="M8.988,39.681 C8.96,39.713 8.976,39.696 8.947,39.727 C9.873,38.737 18.439,30.373 33.929,41.348 C36.182,42.945 39.303,42.413 40.9,40.16 C42.497,37.905 41.964,34.787 39.712,33.188 C21.104,20 6.588,27.326 1.512,33.041 C-0.322,35.104 -0.135,38.266 1.93,40.1 C3.994,41.933 7.154,41.745 8.988,39.681 Z"></path>
            </g>
            <path fill="#6CB7E6" id="Shape" d="M175.736,188.18 C134.017,213.715 76.694,206.327 53.532,177.32 C23.066,139.165 49.33,104.103 72.638,81.563 C95.947,59.025 109.535,86.349 138.004,115.792 C166.477,145.232 203.391,171.252 175.736,188.18 Z"></path>
            <path fill="#9EDBFF" id="Shape" d="M159.508,167.594 C151.569,175.597 129.673,183.568 110.619,181.611 C98.001,180.314 84.248,165.962 90.834,174.863 C106.088,195.49 89.724,184.435 65.17,158.841 C61.832,155.362 81.668,189.195 54.962,161.356 C31.369,136.762 56.531,98.147 75.519,79.006 C94.507,59.865 105.577,83.069 128.769,108.07 C151.965,133.073 178.496,148.454 159.508,167.594 Z"></path>
            <path fill="#6CB7E6" id="Shape" d="M40.849,150.026 C40.849,150.026 35.848,128.459 58.735,128.459 C67.571,128.459 75.656,128.802 81.979,142.775 L97.457,109.403 C97.457,109.403 32.056,83.538 40.849,150.026 Z"></path>
            <path fill="#6CB7E6" id="Shape" d="M157.708,117.47 L75.225,132.956 C75.225,132.956 81.943,137.359 85.565,153.693 C89.717,172.421 111.883,192.38 136.943,183.549 C143.284,181.316 151.726,169.796 161.704,168.508 C165.721,167.987 160.111,157.858 169.212,157.858 C173.906,157.858 181.698,136.591 173.129,125.081 L157.708,117.47 Z"></path>
            <path fill="#347FAB" id="Shape" d="M160.904,185.465 C160.904,185.465 168.556,189.689 176.679,187.577 C176.679,187.577 180.247,184.808 181.816,183.244 C181.816,183.244 171.164,187.001 160.904,185.465 Z"></path>
            <path fill="#6CB7E6" id="Shape" d="M207.686,95.139 C216.463,98.726 217.68,116.06 206.561,143.264 C195.444,170.469 179.315,189.618 170.54,186.029 C161.764,182.441 163.663,157.48 174.782,130.276 C185.9,103.071 198.907,91.553 207.686,95.139 Z"></path>
            <path fill="#9EDBFF" id="Shape" d="M212.668,101.92 C217.234,104.049 214.54,112.78 203.309,126.375 C176.571,158.729 199.016,124.723 193.746,128.437 C188.475,132.149 176.46,147.958 174.177,146.894 C169.611,144.765 175.248,132.127 186.771,118.666 C198.288,105.204 208.102,99.79 212.668,101.92 Z"></path>
            <path fill="#6CB7E6" id="Shape" d="M222.994,110.272 C230.634,115.887 227.596,132.997 210.187,156.676 C192.777,180.356 172.476,195.001 164.836,189.386 C157.198,183.772 165.115,160.024 182.524,136.344 C199.934,112.663 215.355,104.656 222.994,110.272 Z"></path>
            <path fill="#9EDBFF" id="Shape" d="M218.219,113.098 C222.934,117.254 219.209,127.984 205.842,142.611 C174.024,177.431 201.379,139.169 195.358,142.514 C189.337,145.859 174.92,163.182 172.563,161.104 C167.848,156.953 175.106,141.934 188.77,127.564 C202.438,113.196 213.504,108.944 218.219,113.098 Z"></path>
            <path fill="#6CB7E6" id="Shape" d="M228.216,128.275 C234.07,134.82 228.059,149.754 207.764,167.908 C187.471,186.062 166.27,195.471 160.415,188.926 C154.559,182.381 166.264,162.357 186.557,144.204 C206.852,126.048 222.359,121.731 228.216,128.275 Z"></path>
            <path fill="#9EDBFF" id="Shape" d="M221.676,130.084 C225.977,134.627 221.131,144.845 206.209,157.982 C170.688,189.261 202.088,154.166 195.7,156.888 C189.31,159.612 173.058,175.308 170.909,173.036 C166.609,168.494 175.441,154.39 190.638,141.529 C205.833,128.678 217.376,125.542 221.676,130.084 Z"></path>
            <path fill="#6CB7E6" id="Shape" d="M175.209,143.751 C171.611,158.838 158.736,131.258 159.834,135.73 C160.758,139.504 167.17,155.876 164.121,152.83 C152.892,141.602 161.482,165.853 158.736,165.017 C146.511,161.283 149.693,172.298 144.62,174.246 C135.74,177.647 126.006,177.713 116.877,175.067 C92.426,167.985 81.566,135.72 86.667,118.107 C91.769,100.499 115.725,91.961 140.173,99.044 C164.623,106.121 179.46,125.916 175.209,143.751 Z"></path>
            <path fill="#9EDBFF" id="Shape" d="M168.072,135.847 C167.467,137.938 164.429,126.743 155.32,126.314 C153.775,126.055 149.201,125.126 157.789,145.996 C158.603,147.975 152.885,137.083 151.865,142.136 C151.486,144.013 150.45,142.136 153.495,152.506 C155.305,158.67 145.693,146.687 145.693,155.938 C149.99,165.202 139.56,164.611 136.982,165.39 C130.423,165.994 122.431,164.483 115.865,162.579 C94.993,156.531 93.363,140.945 93.363,130.266 C93.363,130.266 104.865,126.407 115.579,118.912 C111.438,121.662 125.945,112.493 128.507,102.955 C149.376,108.996 172.426,120.813 168.072,135.847 Z"></path>
            <circle r="61.796" cy="62.714" cx="72.568" fill="#6CB7E6" id="Oval"></circle>
            <path fill="#9EDBFF" id="Shape" d="M119.988,48.928 C120.435,57.388 114.81,80.553 114.386,72.489 C113.092,47.937 106.084,97.045 104.147,84.966 C102.881,77.07 99.931,88.684 97.517,90.197 C90.27,94.75 81.322,97.252 71.932,97.736 C44.046,99.181 20.352,79.673 19.008,54.161 C17.668,28.648 39.183,6.797 67.067,5.352 C94.953,3.906 118.646,23.417 119.988,48.928 Z"></path>
            <path fill="#6E6E96" id="Shape" d="M54.467,44.872 C55.623,48.568 54.436,53.013 51.817,54.784 C49.198,56.558 46.135,54.993 44.976,51.289 C43.816,47.589 45.004,43.145 47.626,41.373 C50.249,39.603 53.309,41.158 54.467,44.872 Z"></path>
            <path fill="#FFDC6E" id="Shape" d="M35.624,92.695 C29.503,96.744 6.155,104.871 1.439,102.727 C-2.707,100.844 8.393,80.858 19.695,73.382 C19.695,73.382 27.811,66.422 36.79,74.929 C43.976,86.446 35.624,92.695 35.624,92.695 Z"></path>
            <path opacity="0.15" fill="#6E6E96" id="Shape" d="M2.459,100.479 C2.459,100.479 35.49,87.853 35.093,76.721 C35.093,76.721 43.433,88.767 34.262,93.51 C25.091,98.253 2.459,106.469 2.459,100.479 Z"></path>
            <g fill="#FFBB3F" transform="translate(83.000000, 187.000000)" id="Group">
                <g id="Shape" transform="translate(19.000000, 0.000000)">
                    <path d="M15.824,5.807 C15.824,5.807 7.755,13.589 5.585,34.486"></path>
                    <path d="M12.354,2.208 C11.393,3.134 2.905,11.895 0.612,33.969 C0.327,36.716 2.322,39.173 5.069,39.459 C7.816,39.744 10.274,37.749 10.559,35.002 C12.487,16.439 19.229,9.471 19.295,9.403 C21.283,7.486 21.34,4.321 19.423,2.336 C17.506,0.348 14.341,0.291 12.354,2.208 Z"></path>
                </g>
                <path id="Shape" d="M9.305,45.071 C9.282,45.097 9.295,45.085 9.271,45.109 C10.408,43.882 20.925,33.51 39.814,46.897 C42.068,48.496 45.187,47.962 46.785,45.709 C48.382,43.456 47.849,40.336 45.597,38.737 C24.216,23.588 7.618,31.912 1.827,38.428 C-0.007,40.492 0.18,43.653 2.245,45.487 C4.311,47.323 7.471,47.135 9.305,45.071 Z"></path>
            </g>
            <path opacity="0.45" fill="#FFFFFF" id="Shape" d="M60.08,66.549 C60.08,69.494 55.752,69.882 50.413,69.882 C45.074,69.882 40.746,69.494 40.746,66.549 C40.746,63.603 45.074,61.216 50.413,61.216 C55.752,61.216 60.08,63.603 60.08,66.549 Z"></path>
            <circle r="7" cy="60.882" cx="178.414" opacity="0.41" fill="#9EDBFF" id="Oval"></circle>
            <circle r="4" cy="161.216" cx="12.08" fill="#9EDBFF" id="Oval"></circle>
            <circle r="3.333" cy="88.549" cx="158.081" fill="#9EDBFF" id="Oval"></circle>
            <circle r="8.912" cy="204.304" cx="29.835" opacity="0.41" fill="#9EDBFF" id="Oval"></circle>
        </g>
    </g>
</svg>